<mxfile host="app.diagrams.net" modified="2023-10-08T08:03:07.506Z" agent="Mozilla/5.0 (Windows NT 10.0; Win64; x64) AppleWebKit/537.36 (KHTML, like Gecko) Chrome/117.0.0.0 Safari/537.36 Edg/117.0.2045.47" etag="3_FbmFjVRbe8uRDtU-oF" version="22.0.4" type="github">
  <diagram name="第 1 页" id="Mj5Ews41ki1znMXVR-Vp">
    <mxGraphModel dx="3758" dy="2635" grid="1" gridSize="10" guides="1" tooltips="1" connect="1" arrows="1" fold="1" page="1" pageScale="1" pageWidth="827" pageHeight="1169" background="none" math="0" shadow="0">
      <root>
        <mxCell id="0" />
        <mxCell id="1" parent="0" />
        <mxCell id="2igFnFL0GFjL6AdHKT34-109" value="" style="rounded=0;whiteSpace=wrap;html=1;" vertex="1" parent="1">
          <mxGeometry x="-810" y="-1160" width="2050" height="1110" as="geometry" />
        </mxCell>
        <mxCell id="2igFnFL0GFjL6AdHKT34-57" style="edgeStyle=orthogonalEdgeStyle;rounded=0;orthogonalLoop=1;jettySize=auto;html=1;exitX=0.5;exitY=1;exitDx=0;exitDy=0;entryX=0.5;entryY=0;entryDx=0;entryDy=0;endArrow=classic;endFill=1;" edge="1" parent="1" source="2igFnFL0GFjL6AdHKT34-1" target="2igFnFL0GFjL6AdHKT34-7">
          <mxGeometry relative="1" as="geometry" />
        </mxCell>
        <mxCell id="2igFnFL0GFjL6AdHKT34-58" style="edgeStyle=orthogonalEdgeStyle;rounded=0;orthogonalLoop=1;jettySize=auto;html=1;exitX=0.5;exitY=1;exitDx=0;exitDy=0;entryX=0.5;entryY=0;entryDx=0;entryDy=0;endArrow=classic;endFill=1;" edge="1" parent="1" source="2igFnFL0GFjL6AdHKT34-1" target="2igFnFL0GFjL6AdHKT34-3">
          <mxGeometry relative="1" as="geometry" />
        </mxCell>
        <mxCell id="2igFnFL0GFjL6AdHKT34-59" style="edgeStyle=orthogonalEdgeStyle;rounded=0;orthogonalLoop=1;jettySize=auto;html=1;exitX=0.5;exitY=1;exitDx=0;exitDy=0;entryX=0.5;entryY=0;entryDx=0;entryDy=0;" edge="1" parent="1" source="2igFnFL0GFjL6AdHKT34-1" target="2igFnFL0GFjL6AdHKT34-4">
          <mxGeometry relative="1" as="geometry" />
        </mxCell>
        <mxCell id="2igFnFL0GFjL6AdHKT34-61" style="edgeStyle=orthogonalEdgeStyle;rounded=0;orthogonalLoop=1;jettySize=auto;html=1;exitX=0.5;exitY=1;exitDx=0;exitDy=0;entryX=0.5;entryY=0;entryDx=0;entryDy=0;" edge="1" parent="1" source="2igFnFL0GFjL6AdHKT34-1" target="2igFnFL0GFjL6AdHKT34-6">
          <mxGeometry relative="1" as="geometry" />
        </mxCell>
        <mxCell id="2igFnFL0GFjL6AdHKT34-84" style="edgeStyle=orthogonalEdgeStyle;rounded=0;orthogonalLoop=1;jettySize=auto;html=1;exitX=0.5;exitY=1;exitDx=0;exitDy=0;entryX=0.5;entryY=0;entryDx=0;entryDy=0;" edge="1" parent="1" source="2igFnFL0GFjL6AdHKT34-1" target="2igFnFL0GFjL6AdHKT34-83">
          <mxGeometry relative="1" as="geometry" />
        </mxCell>
        <mxCell id="2igFnFL0GFjL6AdHKT34-85" style="edgeStyle=orthogonalEdgeStyle;rounded=0;orthogonalLoop=1;jettySize=auto;html=1;exitX=0.5;exitY=1;exitDx=0;exitDy=0;entryX=0.5;entryY=0;entryDx=0;entryDy=0;" edge="1" parent="1" source="2igFnFL0GFjL6AdHKT34-1" target="2igFnFL0GFjL6AdHKT34-8">
          <mxGeometry relative="1" as="geometry" />
        </mxCell>
        <mxCell id="2igFnFL0GFjL6AdHKT34-86" style="edgeStyle=orthogonalEdgeStyle;rounded=0;orthogonalLoop=1;jettySize=auto;html=1;exitX=0.5;exitY=1;exitDx=0;exitDy=0;" edge="1" parent="1" source="2igFnFL0GFjL6AdHKT34-1" target="2igFnFL0GFjL6AdHKT34-5">
          <mxGeometry relative="1" as="geometry" />
        </mxCell>
        <mxCell id="2igFnFL0GFjL6AdHKT34-94" style="edgeStyle=orthogonalEdgeStyle;rounded=0;orthogonalLoop=1;jettySize=auto;html=1;exitX=0.5;exitY=1;exitDx=0;exitDy=0;entryX=0.5;entryY=0;entryDx=0;entryDy=0;" edge="1" parent="1" source="2igFnFL0GFjL6AdHKT34-1" target="2igFnFL0GFjL6AdHKT34-87">
          <mxGeometry relative="1" as="geometry" />
        </mxCell>
        <mxCell id="2igFnFL0GFjL6AdHKT34-1" value="基于Spark的美食推荐系统" style="rounded=1;whiteSpace=wrap;html=1;flipV=1;fontSize=39;aspect=fixed;" vertex="1" parent="1">
          <mxGeometry x="-100" y="-1120" width="629" height="110.04" as="geometry" />
        </mxCell>
        <mxCell id="2igFnFL0GFjL6AdHKT34-68" style="edgeStyle=orthogonalEdgeStyle;rounded=0;orthogonalLoop=1;jettySize=auto;html=1;exitX=0.5;exitY=1;exitDx=0;exitDy=0;" edge="1" parent="1" source="2igFnFL0GFjL6AdHKT34-3" target="2igFnFL0GFjL6AdHKT34-51">
          <mxGeometry relative="1" as="geometry" />
        </mxCell>
        <mxCell id="2igFnFL0GFjL6AdHKT34-96" style="edgeStyle=orthogonalEdgeStyle;rounded=0;orthogonalLoop=1;jettySize=auto;html=1;exitX=0.5;exitY=1;exitDx=0;exitDy=0;entryX=0.5;entryY=0;entryDx=0;entryDy=0;" edge="1" parent="1" source="2igFnFL0GFjL6AdHKT34-3" target="2igFnFL0GFjL6AdHKT34-52">
          <mxGeometry relative="1" as="geometry" />
        </mxCell>
        <mxCell id="2igFnFL0GFjL6AdHKT34-3" value="首页" style="rounded=1;whiteSpace=wrap;html=1;fontSize=37;flipH=0;flipV=1;aspect=fixed;" vertex="1" parent="1">
          <mxGeometry x="-15" y="-820" width="215" height="77.72" as="geometry" />
        </mxCell>
        <mxCell id="2igFnFL0GFjL6AdHKT34-71" style="edgeStyle=orthogonalEdgeStyle;rounded=0;orthogonalLoop=1;jettySize=auto;html=1;exitX=0.5;exitY=1;exitDx=0;exitDy=0;" edge="1" parent="1" source="2igFnFL0GFjL6AdHKT34-4" target="2igFnFL0GFjL6AdHKT34-19">
          <mxGeometry relative="1" as="geometry" />
        </mxCell>
        <mxCell id="2igFnFL0GFjL6AdHKT34-72" style="edgeStyle=orthogonalEdgeStyle;rounded=0;orthogonalLoop=1;jettySize=auto;html=1;exitX=0.5;exitY=1;exitDx=0;exitDy=0;" edge="1" parent="1" source="2igFnFL0GFjL6AdHKT34-4" target="2igFnFL0GFjL6AdHKT34-18">
          <mxGeometry relative="1" as="geometry" />
        </mxCell>
        <mxCell id="2igFnFL0GFjL6AdHKT34-73" style="edgeStyle=orthogonalEdgeStyle;rounded=0;orthogonalLoop=1;jettySize=auto;html=1;exitX=0.5;exitY=1;exitDx=0;exitDy=0;" edge="1" parent="1" source="2igFnFL0GFjL6AdHKT34-4" target="2igFnFL0GFjL6AdHKT34-17">
          <mxGeometry relative="1" as="geometry" />
        </mxCell>
        <mxCell id="2igFnFL0GFjL6AdHKT34-4" value="离线推荐" style="rounded=1;whiteSpace=wrap;html=1;fontSize=37;flipH=0;flipV=1;aspect=fixed;" vertex="1" parent="1">
          <mxGeometry x="-739.5" y="-820" width="215" height="77.72" as="geometry" />
        </mxCell>
        <mxCell id="2igFnFL0GFjL6AdHKT34-74" style="edgeStyle=orthogonalEdgeStyle;rounded=0;orthogonalLoop=1;jettySize=auto;html=1;exitX=0.5;exitY=1;exitDx=0;exitDy=0;entryX=0.5;entryY=0;entryDx=0;entryDy=0;" edge="1" parent="1" source="2igFnFL0GFjL6AdHKT34-5" target="2igFnFL0GFjL6AdHKT34-41">
          <mxGeometry relative="1" as="geometry" />
        </mxCell>
        <mxCell id="2igFnFL0GFjL6AdHKT34-76" style="edgeStyle=orthogonalEdgeStyle;rounded=0;orthogonalLoop=1;jettySize=auto;html=1;exitX=0.5;exitY=1;exitDx=0;exitDy=0;entryX=0.5;entryY=0;entryDx=0;entryDy=0;" edge="1" parent="1" source="2igFnFL0GFjL6AdHKT34-5" target="2igFnFL0GFjL6AdHKT34-49">
          <mxGeometry relative="1" as="geometry" />
        </mxCell>
        <mxCell id="2igFnFL0GFjL6AdHKT34-77" style="edgeStyle=orthogonalEdgeStyle;rounded=0;orthogonalLoop=1;jettySize=auto;html=1;exitX=0.5;exitY=1;exitDx=0;exitDy=0;entryX=0.5;entryY=0;entryDx=0;entryDy=0;" edge="1" parent="1" source="2igFnFL0GFjL6AdHKT34-5" target="2igFnFL0GFjL6AdHKT34-54">
          <mxGeometry relative="1" as="geometry" />
        </mxCell>
        <mxCell id="2igFnFL0GFjL6AdHKT34-5" value="菜品类别" style="rounded=1;whiteSpace=wrap;html=1;fontSize=37;flipH=0;flipV=1;aspect=fixed;" vertex="1" parent="1">
          <mxGeometry x="460" y="-820" width="215" height="77.72" as="geometry" />
        </mxCell>
        <mxCell id="2igFnFL0GFjL6AdHKT34-99" style="edgeStyle=orthogonalEdgeStyle;rounded=0;orthogonalLoop=1;jettySize=auto;html=1;exitX=0.5;exitY=1;exitDx=0;exitDy=0;entryX=0.5;entryY=0;entryDx=0;entryDy=0;" edge="1" parent="1" source="2igFnFL0GFjL6AdHKT34-6" target="2igFnFL0GFjL6AdHKT34-97">
          <mxGeometry relative="1" as="geometry" />
        </mxCell>
        <mxCell id="2igFnFL0GFjL6AdHKT34-100" style="edgeStyle=orthogonalEdgeStyle;rounded=0;orthogonalLoop=1;jettySize=auto;html=1;exitX=0.5;exitY=1;exitDx=0;exitDy=0;" edge="1" parent="1" source="2igFnFL0GFjL6AdHKT34-6" target="2igFnFL0GFjL6AdHKT34-98">
          <mxGeometry relative="1" as="geometry" />
        </mxCell>
        <mxCell id="2igFnFL0GFjL6AdHKT34-6" value="实时推荐" style="rounded=1;whiteSpace=wrap;html=1;fontSize=37;flipH=0;flipV=1;aspect=fixed;" vertex="1" parent="1">
          <mxGeometry x="-498" y="-820" width="215" height="77.72" as="geometry" />
        </mxCell>
        <mxCell id="2igFnFL0GFjL6AdHKT34-64" style="edgeStyle=orthogonalEdgeStyle;rounded=0;orthogonalLoop=1;jettySize=auto;html=1;exitX=0.5;exitY=1;exitDx=0;exitDy=0;entryX=0.5;entryY=0;entryDx=0;entryDy=0;" edge="1" parent="1" source="2igFnFL0GFjL6AdHKT34-7" target="2igFnFL0GFjL6AdHKT34-14">
          <mxGeometry relative="1" as="geometry" />
        </mxCell>
        <mxCell id="2igFnFL0GFjL6AdHKT34-65" style="edgeStyle=orthogonalEdgeStyle;rounded=0;orthogonalLoop=1;jettySize=auto;html=1;exitX=0.5;exitY=1;exitDx=0;exitDy=0;entryX=0.5;entryY=0;entryDx=0;entryDy=0;" edge="1" parent="1" source="2igFnFL0GFjL6AdHKT34-7" target="2igFnFL0GFjL6AdHKT34-34">
          <mxGeometry relative="1" as="geometry" />
        </mxCell>
        <mxCell id="2igFnFL0GFjL6AdHKT34-66" style="edgeStyle=orthogonalEdgeStyle;rounded=0;orthogonalLoop=1;jettySize=auto;html=1;exitX=0.5;exitY=1;exitDx=0;exitDy=0;entryX=0.5;entryY=0;entryDx=0;entryDy=0;" edge="1" parent="1" source="2igFnFL0GFjL6AdHKT34-7" target="2igFnFL0GFjL6AdHKT34-56">
          <mxGeometry relative="1" as="geometry" />
        </mxCell>
        <mxCell id="2igFnFL0GFjL6AdHKT34-7" value="数据可视化" style="rounded=1;whiteSpace=wrap;html=1;fontSize=37;flipH=0;flipV=1;aspect=fixed;" vertex="1" parent="1">
          <mxGeometry x="-257" y="-820" width="215" height="77.72" as="geometry" />
        </mxCell>
        <mxCell id="2igFnFL0GFjL6AdHKT34-79" style="edgeStyle=orthogonalEdgeStyle;rounded=0;orthogonalLoop=1;jettySize=auto;html=1;exitX=0.5;exitY=1;exitDx=0;exitDy=0;" edge="1" parent="1" source="2igFnFL0GFjL6AdHKT34-8" target="2igFnFL0GFjL6AdHKT34-45">
          <mxGeometry relative="1" as="geometry" />
        </mxCell>
        <mxCell id="2igFnFL0GFjL6AdHKT34-81" style="edgeStyle=orthogonalEdgeStyle;rounded=0;orthogonalLoop=1;jettySize=auto;html=1;exitX=0.5;exitY=1;exitDx=0;exitDy=0;entryX=0.5;entryY=0;entryDx=0;entryDy=0;" edge="1" parent="1" source="2igFnFL0GFjL6AdHKT34-8" target="2igFnFL0GFjL6AdHKT34-33">
          <mxGeometry relative="1" as="geometry" />
        </mxCell>
        <mxCell id="2igFnFL0GFjL6AdHKT34-82" style="edgeStyle=orthogonalEdgeStyle;rounded=0;orthogonalLoop=1;jettySize=auto;html=1;exitX=0.5;exitY=1;exitDx=0;exitDy=0;entryX=0.5;entryY=0;entryDx=0;entryDy=0;" edge="1" parent="1" source="2igFnFL0GFjL6AdHKT34-8" target="2igFnFL0GFjL6AdHKT34-44">
          <mxGeometry relative="1" as="geometry" />
        </mxCell>
        <mxCell id="2igFnFL0GFjL6AdHKT34-8" value="用户" style="rounded=1;whiteSpace=wrap;html=1;fontSize=37;flipH=0;flipV=1;aspect=fixed;" vertex="1" parent="1">
          <mxGeometry x="950" y="-820" width="215" height="77.72" as="geometry" />
        </mxCell>
        <mxCell id="2igFnFL0GFjL6AdHKT34-14" value="用户动态" style="rounded=1;whiteSpace=wrap;html=1;fontSize=37;flipH=1;flipV=0;aspect=fixed;" vertex="1" parent="1">
          <mxGeometry x="-283" y="-608" width="73" height="507.4" as="geometry" />
        </mxCell>
        <mxCell id="2igFnFL0GFjL6AdHKT34-17" value="热门菜品排行" style="rounded=1;whiteSpace=wrap;html=1;fontSize=37;flipH=1;flipV=0;aspect=fixed;" vertex="1" parent="1">
          <mxGeometry x="-571" y="-608" width="73" height="507.4" as="geometry" />
        </mxCell>
        <mxCell id="2igFnFL0GFjL6AdHKT34-18" value="精选美食" style="rounded=1;whiteSpace=wrap;html=1;fontSize=37;flipH=1;flipV=0;aspect=fixed;" vertex="1" parent="1">
          <mxGeometry x="-671" y="-608" width="73" height="507.4" as="geometry" />
        </mxCell>
        <mxCell id="2igFnFL0GFjL6AdHKT34-19" value="优质菜品" style="rounded=1;whiteSpace=wrap;html=1;fontSize=37;flipH=1;flipV=0;aspect=fixed;" vertex="1" parent="1">
          <mxGeometry x="-770" y="-608" width="73" height="507.4" as="geometry" />
        </mxCell>
        <mxCell id="2igFnFL0GFjL6AdHKT34-33" value="我的评分菜品" style="rounded=1;whiteSpace=wrap;html=1;fontSize=37;flipH=1;flipV=0;aspect=fixed;" vertex="1" parent="1">
          <mxGeometry x="1019" y="-600" width="73" height="507.4" as="geometry" />
        </mxCell>
        <mxCell id="2igFnFL0GFjL6AdHKT34-34" value="..." style="rounded=1;whiteSpace=wrap;html=1;fontSize=37;flipH=1;flipV=0;aspect=fixed;" vertex="1" parent="1">
          <mxGeometry x="-184" y="-608" width="73" height="507.4" as="geometry" />
        </mxCell>
        <mxCell id="2igFnFL0GFjL6AdHKT34-41" value="海鲜" style="rounded=1;whiteSpace=wrap;html=1;fontSize=37;flipH=1;flipV=0;aspect=fixed;" vertex="1" parent="1">
          <mxGeometry x="434" y="-608" width="73" height="507.4" as="geometry" />
        </mxCell>
        <mxCell id="2igFnFL0GFjL6AdHKT34-44" value="登录" style="rounded=1;whiteSpace=wrap;html=1;fontSize=37;flipH=1;flipV=0;aspect=fixed;" vertex="1" parent="1">
          <mxGeometry x="1118" y="-600" width="73" height="507.4" as="geometry" />
        </mxCell>
        <mxCell id="2igFnFL0GFjL6AdHKT34-45" value="注册" style="rounded=1;whiteSpace=wrap;html=1;fontSize=37;flipH=1;flipV=0;aspect=fixed;" vertex="1" parent="1">
          <mxGeometry x="919" y="-600" width="73" height="507.4" as="geometry" />
        </mxCell>
        <mxCell id="2igFnFL0GFjL6AdHKT34-49" value="..." style="rounded=1;whiteSpace=wrap;html=1;fontSize=37;flipH=1;flipV=0;aspect=fixed;" vertex="1" parent="1">
          <mxGeometry x="533" y="-608" width="73" height="507.4" as="geometry" />
        </mxCell>
        <mxCell id="2igFnFL0GFjL6AdHKT34-51" value="热门菜品" style="rounded=1;whiteSpace=wrap;html=1;fontSize=37;flipH=1;flipV=0;aspect=fixed;" vertex="1" parent="1">
          <mxGeometry x="6.5" y="-608" width="73" height="507.4" as="geometry" />
        </mxCell>
        <mxCell id="2igFnFL0GFjL6AdHKT34-52" value="菜品轮播图" style="rounded=1;whiteSpace=wrap;html=1;fontSize=37;flipH=1;flipV=0;aspect=fixed;" vertex="1" parent="1">
          <mxGeometry x="105.5" y="-608" width="73" height="507.4" as="geometry" />
        </mxCell>
        <mxCell id="2igFnFL0GFjL6AdHKT34-54" value="甜品" style="rounded=1;whiteSpace=wrap;html=1;fontSize=37;flipH=1;flipV=0;aspect=fixed;" vertex="1" parent="1">
          <mxGeometry x="632" y="-608" width="73" height="507.4" as="geometry" />
        </mxCell>
        <mxCell id="2igFnFL0GFjL6AdHKT34-56" value="用户评分分布" style="rounded=1;whiteSpace=wrap;html=1;fontSize=37;flipH=1;flipV=0;aspect=fixed;" vertex="1" parent="1">
          <mxGeometry x="-84" y="-608" width="73" height="507.4" as="geometry" />
        </mxCell>
        <mxCell id="2igFnFL0GFjL6AdHKT34-104" style="edgeStyle=orthogonalEdgeStyle;rounded=0;orthogonalLoop=1;jettySize=auto;html=1;exitX=0.5;exitY=1;exitDx=0;exitDy=0;entryX=0.5;entryY=0;entryDx=0;entryDy=0;" edge="1" parent="1" source="2igFnFL0GFjL6AdHKT34-83" target="2igFnFL0GFjL6AdHKT34-102">
          <mxGeometry relative="1" as="geometry" />
        </mxCell>
        <mxCell id="2igFnFL0GFjL6AdHKT34-107" style="edgeStyle=orthogonalEdgeStyle;rounded=0;orthogonalLoop=1;jettySize=auto;html=1;exitX=0.5;exitY=1;exitDx=0;exitDy=0;entryX=0.5;entryY=0;entryDx=0;entryDy=0;" edge="1" parent="1" source="2igFnFL0GFjL6AdHKT34-83" target="2igFnFL0GFjL6AdHKT34-103">
          <mxGeometry relative="1" as="geometry" />
        </mxCell>
        <mxCell id="2igFnFL0GFjL6AdHKT34-83" value="菜品搜索框" style="rounded=1;whiteSpace=wrap;html=1;fontSize=37;flipH=0;flipV=1;aspect=fixed;" vertex="1" parent="1">
          <mxGeometry x="219" y="-820" width="215" height="77.72" as="geometry" />
        </mxCell>
        <mxCell id="2igFnFL0GFjL6AdHKT34-90" style="edgeStyle=orthogonalEdgeStyle;rounded=0;orthogonalLoop=1;jettySize=auto;html=1;exitX=0.5;exitY=1;exitDx=0;exitDy=0;entryX=0.5;entryY=0;entryDx=0;entryDy=0;" edge="1" parent="1" source="2igFnFL0GFjL6AdHKT34-87" target="2igFnFL0GFjL6AdHKT34-88">
          <mxGeometry relative="1" as="geometry" />
        </mxCell>
        <mxCell id="2igFnFL0GFjL6AdHKT34-91" style="edgeStyle=orthogonalEdgeStyle;rounded=0;orthogonalLoop=1;jettySize=auto;html=1;exitX=0.5;exitY=1;exitDx=0;exitDy=0;" edge="1" parent="1" source="2igFnFL0GFjL6AdHKT34-87" target="2igFnFL0GFjL6AdHKT34-89">
          <mxGeometry relative="1" as="geometry" />
        </mxCell>
        <mxCell id="2igFnFL0GFjL6AdHKT34-87" value="菜品详情" style="rounded=1;whiteSpace=wrap;html=1;fontSize=37;flipH=0;flipV=1;aspect=fixed;" vertex="1" parent="1">
          <mxGeometry x="709" y="-820" width="215" height="77.72" as="geometry" />
        </mxCell>
        <mxCell id="2igFnFL0GFjL6AdHKT34-88" value="菜品评分" style="rounded=1;whiteSpace=wrap;html=1;fontSize=37;flipH=1;flipV=0;aspect=fixed;" vertex="1" parent="1">
          <mxGeometry x="730.5" y="-600" width="73" height="507.4" as="geometry" />
        </mxCell>
        <mxCell id="2igFnFL0GFjL6AdHKT34-89" value="相似菜品" style="rounded=1;whiteSpace=wrap;html=1;fontSize=37;flipH=1;flipV=0;aspect=fixed;" vertex="1" parent="1">
          <mxGeometry x="829.5" y="-600" width="73" height="507.4" as="geometry" />
        </mxCell>
        <mxCell id="2igFnFL0GFjL6AdHKT34-97" value="冷启动" style="rounded=1;whiteSpace=wrap;html=1;fontSize=37;flipH=1;flipV=0;aspect=fixed;" vertex="1" parent="1">
          <mxGeometry x="-472" y="-608" width="73" height="507.4" as="geometry" />
        </mxCell>
        <mxCell id="2igFnFL0GFjL6AdHKT34-98" value="流式推荐" style="rounded=1;whiteSpace=wrap;html=1;fontSize=37;flipH=1;flipV=0;aspect=fixed;" vertex="1" parent="1">
          <mxGeometry x="-373" y="-608" width="73" height="507.4" as="geometry" />
        </mxCell>
        <mxCell id="2igFnFL0GFjL6AdHKT34-102" value="菜品名称搜索" style="rounded=1;whiteSpace=wrap;html=1;fontSize=37;flipH=1;flipV=0;aspect=fixed;" vertex="1" parent="1">
          <mxGeometry x="240.5" y="-608" width="73" height="507.4" as="geometry" />
        </mxCell>
        <mxCell id="2igFnFL0GFjL6AdHKT34-103" value="模糊搜索" style="rounded=1;whiteSpace=wrap;html=1;fontSize=37;flipH=1;flipV=0;aspect=fixed;" vertex="1" parent="1">
          <mxGeometry x="339.5" y="-608" width="73" height="507.4" as="geometry" />
        </mxCell>
      </root>
    </mxGraphModel>
  </diagram>
</mxfile>
